<svg width="70" height="24" viewBox="0 0 70 24" fill="none" xmlns="http://www.w3.org/2000/svg">
<g clip-path="url(#clip0_208_49)">
<path d="M12.833 1.4118C10.0569 1.50439 7.42838 2.68412 5.51403 4.69667C3.59969 6.70923 2.55283 9.39343 2.59913 12.1707C2.64543 14.9479 3.78118 17.5957 5.76154 19.5433C7.74191 21.4909 10.4083 22.5824 13.1859 22.5824C15.9635 22.5824 18.6299 21.4909 20.6102 19.5433C22.5906 17.5957 23.7264 14.9479 23.7727 12.1707C23.819 9.39343 22.7721 6.70923 20.8578 4.69667C18.9434 2.68412 16.3149 1.50439 13.5388 1.4118H12.833ZM27.6565 1.4118C24.8804 1.50439 22.2519 2.68412 20.3376 4.69667C18.4232 6.70923 17.3764 9.39343 17.4227 12.1707C17.469 14.9479 18.6047 17.5957 20.5851 19.5433C22.5654 21.4909 25.2318 22.5824 28.0094 22.5824C30.787 22.5824 33.4534 21.4909 35.4338 19.5433C37.4141 17.5957 38.5499 14.9479 38.5962 12.1707C38.6425 9.39343 37.5956 6.70923 35.6813 4.69667C33.7669 2.68412 31.1384 1.50439 28.3624 1.4118H27.6565ZM42.48 1.4118C39.704 1.50439 37.0754 2.68412 35.1611 4.69667C33.2467 6.70923 32.1999 9.39343 32.2462 12.1707C32.2925 14.9479 33.4282 17.5957 35.4086 19.5433C37.389 21.4909 40.0554 22.5824 42.833 22.5824C45.6106 22.5824 48.2769 21.4909 50.2573 19.5433C52.2377 17.5957 53.3734 14.9479 53.4197 12.1707C53.466 9.39343 52.4192 6.70923 50.5048 4.69667C48.5905 2.68412 45.962 1.50439 43.1859 1.4118H42.48ZM57.3035 1.4118C54.5275 1.50439 51.899 2.68412 49.9846 4.69667C48.0703 6.70923 47.0234 9.39343 47.0697 12.1707C47.116 14.9479 48.2518 17.5957 50.2321 19.5433C52.2125 21.4909 54.8789 22.5824 57.6565 22.5824C60.4341 22.5824 63.1005 21.4909 65.0808 19.5433C67.0612 17.5957 68.197 14.9479 68.2433 12.1707C68.2896 9.39343 67.2427 6.70923 65.3283 4.69667C63.414 2.68412 60.7855 1.50439 58.0094 1.4118H57.3035Z" stroke="#282830" stroke-opacity="0.5" stroke-width="2.88235"/>
</g>
<defs>
<clipPath id="clip0_208_49">
<rect width="69.1765" height="24" fill="white" transform="translate(0.833008)"/>
</clipPath>
</defs>
</svg>
