<svg width="48" height="30" viewBox="0 0 48 30" fill="none" xmlns="http://www.w3.org/2000/svg">
<path d="M5.47504 25.1725L6.19918 25.2587C6.52676 25.2932 6.56125 25.5691 6.56125 25.7415V26.5863H3.23366V25.7415C3.23366 25.5691 3.26814 25.2932 3.59573 25.2587L4.31987 25.1725V24.4484H0.00952148V25.1725L0.73366 25.2587C1.06125 25.2932 1.09573 25.5691 1.09573 25.7415V28.5346C1.09573 28.707 1.06125 28.9828 0.73366 29.0173L0.00952148 29.1035V29.8277H4.31987V29.1035L3.59573 29.0173C3.26814 28.9828 3.23366 28.707 3.23366 28.5346V27.6897H6.544V28.5346C6.544 28.707 6.50952 28.9828 6.18194 29.0173L5.4578 29.1035V29.8277H9.76814V29.1035L9.044 29.0173C8.71642 28.9828 8.68194 28.707 8.68194 28.5346V25.7415C8.68194 25.5691 8.71642 25.2932 9.044 25.2587L9.76814 25.1725V24.4484H5.4578V25.1725H5.47504Z" fill="#282830" fill-opacity="0.5"/>
<path d="M34.1822 24.4484H28.8718V25.1725L29.5098 25.2415C29.7339 25.276 29.8891 25.3622 29.8891 25.6725V28.5173C29.8891 28.6897 29.8546 28.9656 29.527 29.0001L28.8029 29.0863V29.8104H34.1822C36.1132 29.8104 37.6994 29.0346 37.6994 27.1208C37.6994 25.207 36.1132 24.4484 34.1822 24.4484ZM33.7856 28.7932H31.9753V25.4828H33.7856C34.8546 25.4828 35.2166 25.9828 35.2166 27.138C35.2166 28.2759 34.8546 28.7932 33.7856 28.7932Z" fill="#282830" fill-opacity="0.5"/>
<path d="M46.7336 29.0173C46.3888 28.9828 46.2853 28.7587 46.1819 28.6035L43.6991 24.8104C43.5267 24.5346 43.3888 24.4484 43.1301 24.4484H39.0612V25.1725L40.0439 25.276C40.1819 25.2932 40.3715 25.4828 40.2163 25.7242L38.3715 28.707C38.3025 28.8277 38.1991 28.9656 37.9922 29.0001L37.2681 29.0863V29.8104H40.6991V29.0863L40.1129 29.0346C39.8543 29.0001 39.7163 28.8277 39.8543 28.6208L40.1301 28.1725H43.4405L43.6819 28.5346C43.906 28.8622 43.6301 29.0001 43.3888 29.0173L42.7853 29.0863V29.8104H47.4405V29.0863L46.7336 29.0173ZM40.6991 27.2242L41.7163 25.5691L42.8026 27.2242H40.6991Z" fill="#282830" fill-opacity="0.5"/>
<path d="M25.0269 25.1724L25.751 25.2586C26.0786 25.2931 26.1131 25.569 26.1131 25.7414V28.431L23.2682 24.6724C23.1475 24.5 23.0269 24.4483 22.7165 24.4483H19.0269V25.1724L19.751 25.2586C20.0786 25.2931 20.1131 25.569 20.1131 25.7414V28.5345C20.1131 28.7069 20.0786 28.9828 19.751 29.0172L19.0269 29.1034V29.8276H22.4751V29.1034L21.751 29.0172C21.4234 28.9828 21.3889 28.7069 21.3889 28.5345V25.8448L24.2338 29.5862C24.3717 29.7586 24.4751 29.8103 24.7855 29.8103H24.82H27.4062V25.7241C27.4062 25.5517 27.4406 25.2759 27.7682 25.2414L28.4924 25.1552V24.431H25.0613L25.0269 25.1724Z" fill="#282830" fill-opacity="0.5"/>
<path d="M14.389 24.2585C10.889 24.2585 9.99243 25.793 9.99243 27.1206C9.99243 28.4481 10.889 29.9999 14.389 29.9999C17.889 29.9999 18.7855 28.4654 18.7855 27.1378C18.7855 25.793 17.889 24.2585 14.389 24.2585ZM14.389 28.9826C13.0269 28.9826 12.4752 28.4137 12.4752 27.1378C12.4752 25.8619 13.0442 25.293 14.389 25.293C15.7511 25.293 16.3028 25.8619 16.3028 27.1378C16.3028 28.4137 15.7511 28.9826 14.389 28.9826Z" fill="#282830" fill-opacity="0.5"/>
<path d="M29.6818 1.776C29.0956 4.41393 28.8542 5.63807 28.3714 7.53462C27.9059 9.36221 27.5439 11.0691 26.9232 11.8967C26.3025 12.7415 25.4576 12.9139 24.8887 12.9829C24.5956 13.0174 24.3714 13.0346 23.7335 13.0346C23.0956 13.0346 22.8714 13.0174 22.5783 12.9829C22.0094 12.9139 21.1645 12.7415 20.5439 11.8967C19.9232 11.0691 19.5611 9.36221 19.1128 7.53462C18.6301 5.62083 18.3887 4.41393 17.8025 1.776C17.8025 1.776 17.2163 1.79324 16.9576 1.81048C16.5956 1.82773 16.3197 1.86221 16.0266 1.89669C16.0266 1.89669 16.3714 7.32773 16.5266 9.63807C16.6818 12.0519 16.9749 16.1381 17.2335 19.2243C17.2335 19.2243 17.7335 19.3105 18.5611 19.345C19.4232 19.3967 19.8197 19.3967 19.8197 19.3967C20.1818 18.0346 20.6128 16.1553 21.1128 15.345C21.5266 14.6898 22.1473 14.6208 22.5094 14.5691C23.0611 14.5001 23.5439 14.4829 23.7507 14.4829C23.9749 14.4829 24.4404 14.4829 24.9921 14.5691C25.3542 14.6208 25.9749 14.6898 26.3887 15.345C26.8887 16.1553 27.337 18.0346 27.6818 19.3967C27.6818 19.3967 28.0611 19.3967 28.9232 19.345C29.7507 19.2932 30.2507 19.2243 30.2507 19.2243C30.5094 16.1381 30.8025 12.0691 30.9576 9.63807C31.1128 7.34497 31.4576 1.89669 31.4576 1.89669C31.1645 1.86221 30.8714 1.82773 30.5266 1.81048C30.268 1.79324 29.6818 1.776 29.6818 1.776Z" fill="#282830" fill-opacity="0.5"/>
<path d="M36.5265 4.98276C36.1816 1.53448 33.8713 0.810345 31.8541 0.465517C30.8368 0.293103 29.0265 0.155172 27.8713 0.103448C26.8541 0.0344826 24.4747 0 23.7506 0C23.0265 0 20.6472 0.0344828 19.6299 0.103448C18.4748 0.155172 16.6644 0.293103 15.6472 0.465517C13.6299 0.810345 11.3196 1.53448 10.9748 4.98276C10.8713 5.93103 10.8541 7.15517 10.8713 8.46552C10.9058 10.6552 11.0954 12.1207 11.1989 13.1552C11.2679 13.8621 11.561 15.9655 11.9403 17.0517C12.4575 18.5517 12.923 18.9828 13.4748 19.431C14.4748 20.2414 16.1299 20.5 16.4748 20.569C18.3368 20.8966 22.0954 20.9655 23.7679 20.9655C25.423 20.9655 29.1989 20.9138 31.061 20.569C31.4058 20.5 33.061 20.2586 34.061 19.431C34.6127 18.9828 35.0782 18.5517 35.5954 17.0517C35.9748 15.9655 36.2679 13.8448 36.3368 13.1552C36.4403 12.1379 36.6299 10.6552 36.6644 8.46552C36.6472 7.13793 36.6127 5.91379 36.5265 4.98276ZM35.2506 10.7759C35.0437 13.5345 34.8023 15.1897 34.4575 16.3793C34.1472 17.431 33.7679 18.1207 33.2161 18.6207C32.2851 19.4655 31.0092 19.6379 30.2506 19.7586C28.6299 20 25.8885 20.0862 23.7506 20.0862C21.5954 20.0862 18.8713 20 17.2506 19.7586C16.492 19.6379 15.2161 19.4655 14.2851 18.6207C13.7334 18.1207 13.3541 17.4138 13.0437 16.3793C12.6989 15.1897 12.4403 13.5345 12.2506 10.7759C12.1299 9.12069 12.1472 6.43103 12.3368 4.98276C12.5954 2.81034 13.6644 1.72414 15.9575 1.32759C17.0265 1.13793 18.4748 1 19.8368 0.931034C20.9403 0.862069 22.7334 0.827586 23.7506 0.827586C24.7506 0.810345 26.561 0.862069 27.6472 0.931034C29.0092 1 30.4575 1.13793 31.5265 1.32759C33.8196 1.74138 34.8885 2.82759 35.1644 4.98276C35.3541 6.41379 35.3713 9.10345 35.2506 10.7759Z" fill="#282830" fill-opacity="0.5"/>
</svg>
