<svg width="32" height="32" viewBox="0 0 32 32" fill="none" xmlns="http://www.w3.org/2000/svg">
<g clip-path="url(#clip0_130_284)">
<path fill-rule="evenodd" clip-rule="evenodd" d="M16 1C11.926 1 11.416 1.017 9.816 1.09C8.219 1.163 7.128 1.417 6.174 1.788C5.174 2.164 4.267 2.754 3.517 3.518C2.75422 4.26713 2.16386 5.17349 1.787 6.174C1.418 7.128 1.163 8.22 1.09 9.817C1.018 11.416 1 11.925 1 16C1 20.075 1.017 20.584 1.09 22.184C1.163 23.781 1.417 24.872 1.788 25.826C2.164 26.826 2.754 27.733 3.518 28.483C4.26715 29.2458 5.17351 29.8361 6.174 30.213C7.128 30.583 8.219 30.837 9.816 30.91C11.416 30.983 11.926 31 16 31C20.074 31 20.584 30.983 22.184 30.91C23.781 30.837 24.872 30.583 25.826 30.212C26.826 29.836 27.733 29.246 28.483 28.482C29.2458 27.7329 29.8361 26.8265 30.213 25.826C30.583 24.872 30.837 23.781 30.91 22.184C30.983 20.584 31 20.074 31 16C31 11.926 30.983 11.416 30.91 9.816C30.837 8.219 30.583 7.128 30.212 6.174C29.8354 5.17306 29.245 4.26632 28.482 3.517C27.7329 2.75422 26.8265 2.16386 25.826 1.787C24.872 1.418 23.78 1.163 22.183 1.09C20.584 1.018 20.075 1 16 1ZM16 3.703C20.005 3.703 20.48 3.718 22.062 3.79C23.524 3.857 24.318 4.1 24.847 4.307C25.547 4.578 26.047 4.904 26.572 5.428C27.097 5.953 27.422 6.453 27.693 7.153C27.899 7.682 28.143 8.476 28.21 9.938C28.282 11.52 28.297 11.995 28.297 16C28.297 20.005 28.282 20.48 28.21 22.062C28.143 23.524 27.9 24.318 27.693 24.847C27.4529 25.4985 27.0699 26.088 26.572 26.572C26.0881 27.07 25.4986 27.4531 24.847 27.693C24.318 27.899 23.524 28.143 22.062 28.21C20.48 28.282 20.006 28.297 16 28.297C11.994 28.297 11.52 28.282 9.938 28.21C8.476 28.143 7.682 27.9 7.153 27.693C6.50146 27.4529 5.91201 27.0699 5.428 26.572C4.93018 26.088 4.54713 25.4985 4.307 24.847C4.101 24.318 3.857 23.524 3.79 22.062C3.718 20.48 3.703 20.005 3.703 16C3.703 11.995 3.718 11.52 3.79 9.938C3.857 8.476 4.1 7.682 4.307 7.153C4.578 6.453 4.904 5.953 5.428 5.428C5.91194 4.93004 6.50141 4.54698 7.153 4.307C7.682 4.101 8.476 3.857 9.938 3.79C11.52 3.718 11.995 3.703 16 3.703Z" fill="#2DBF61"/>
<path fill-rule="evenodd" clip-rule="evenodd" d="M16 21.0051C15.3427 21.0051 14.6919 20.8757 14.0846 20.6242C13.4774 20.3726 12.9257 20.004 12.4609 19.5392C11.9962 19.0745 11.6275 18.5227 11.376 17.9155C11.1244 17.3082 10.995 16.6574 10.995 16.0001C10.995 15.3429 11.1244 14.692 11.376 14.0848C11.6275 13.4776 11.9962 12.9258 12.4609 12.4611C12.9257 11.9963 13.4774 11.6276 14.0846 11.3761C14.6919 11.1246 15.3427 10.9951 16 10.9951C17.3274 10.9951 18.6004 11.5224 19.539 12.4611C20.4777 13.3997 21.005 14.6727 21.005 16.0001C21.005 17.3275 20.4777 18.6006 19.539 19.5392C18.6004 20.4778 17.3274 21.0051 16 21.0051ZM16 8.29014C13.9552 8.29014 11.9941 9.10244 10.5482 10.5483C9.10228 11.9942 8.28998 13.9553 8.28998 16.0001C8.28998 18.045 9.10228 20.006 10.5482 21.4519C11.9941 22.8978 13.9552 23.7101 16 23.7101C18.0448 23.7101 20.0059 22.8978 21.4518 21.4519C22.8977 20.006 23.71 18.045 23.71 16.0001C23.71 13.9553 22.8977 11.9942 21.4518 10.5483C20.0059 9.10244 18.0448 8.29014 16 8.29014ZM25.953 8.15014C25.953 8.63349 25.761 9.09705 25.4192 9.43884C25.0774 9.78062 24.6138 9.97264 24.1305 9.97264C23.6471 9.97264 23.1836 9.78062 22.8418 9.43884C22.5 9.09705 22.308 8.63349 22.308 8.15014C22.308 7.66678 22.5 7.20322 22.8418 6.86143C23.1836 6.51965 23.6471 6.32764 24.1305 6.32764C24.6138 6.32764 25.0774 6.51965 25.4192 6.86143C25.761 7.20322 25.953 7.66678 25.953 8.15014Z" fill="#2DBF61"/>
</g>
<defs>
<clipPath id="clip0_130_284">
<rect width="32" height="32" fill="white"/>
</clipPath>
</defs>
</svg>
