<svg width="86" height="20" viewBox="0 0 86 20" fill="none" xmlns="http://www.w3.org/2000/svg">
<path d="M49.8756 17.7052C49.8756 17.8666 49.9265 17.9602 50.0202 17.9602C50.0992 17.9602 50.1647 17.9178 50.2242 17.8752L76.7182 0.680144C77.1658 0.367242 77.7021 0.206319 78.248 0.221059H84.0703C84.9629 0.221059 85.5663 0.815937 85.5663 1.70851V12.8262C85.5663 14.1691 85.2689 14.9512 84.0789 15.6651L77.0156 19.9151C76.9451 19.964 76.8618 20.0002 76.7777 20.0002C76.6936 20.0002 76.6077 19.9321 76.6077 19.6856V6.71503C76.6077 6.56192 76.5653 6.46001 76.4632 6.46001C76.3886 6.46001 76.3178 6.49816 76.2591 6.5451L56.8964 19.1249C56.4544 19.4223 55.9358 19.584 55.409 19.5755H42.5741C41.673 19.5755 41.0782 18.9806 41.0782 18.0795V2.0574C41.0782 1.93843 41.0272 1.82799 40.925 1.82799C40.8507 1.82799 40.7802 1.86689 40.721 1.91307L27.9461 9.57948C27.8186 9.66457 27.7847 9.72406 27.7847 9.78355C27.7847 9.8345 27.8103 9.88546 27.8952 9.97908L37.0239 19.0993C37.1429 19.2183 37.228 19.3119 37.228 19.4138C37.228 19.4989 37.092 19.5669 36.9306 19.5669H28.6856C28.0395 19.5669 27.538 19.4733 27.1896 19.1249L21.6562 13.6001C21.6138 13.5494 21.5528 13.515 21.4863 13.515C21.4263 13.515 21.3678 13.5353 21.3164 13.5659L12.0686 19.1249C11.5077 19.465 11.1251 19.5584 10.5727 19.5584H2.06439C1.15501 19.5669 0.559875 18.9635 0.559875 18.0709V7.16558C0.559875 5.81418 0.857315 5.04058 2.05586 4.32673L9.16177 0.059915C9.21701 0.0223441 9.28198 0.00167314 9.34877 0.000427246C9.45921 0.000427246 9.5187 0.110868 9.5187 0.357354V14.96C9.5187 15.1131 9.55259 15.1809 9.66328 15.1809C9.73858 15.1809 9.80786 15.1385 9.87588 15.0958L33.8794 0.654544C34.3385 0.340036 34.8994 0.187174 35.4604 0.212526H48.3801C49.2727 0.212526 49.8761 0.807403 49.8761 1.69997L49.8676 17.7052H49.8756Z" fill="#282830" fill-opacity="0.5"/>
</svg>
