<svg width="142" height="24" viewBox="0 0 142 24" fill="none" xmlns="http://www.w3.org/2000/svg">
<path fill-rule="evenodd" clip-rule="evenodd" d="M17.1903 1.30884C17.7041 1.32307 17.6495 1.68411 17.5645 1.80858C16.0482 4.16735 12.4655 8.32065 9.85682 12.8775C9.42492 13.6158 9.10328 14.159 9.10328 14.9693C9.10328 16.0678 9.78906 17.3666 11.1667 17.9239C12.073 18.287 12.6435 18.2981 13.6216 18.3122C20.8832 18.5368 23.7944 18.3406 30.2923 18.1201C30.6676 18.119 31.0165 17.8662 31.142 17.7135C32.3982 16.4036 33.1224 14.0488 33.1224 11.9711C33.1224 7.34352 29.7896 3.17511 24.5904 1.17033L23.7559 2.24048C28.3128 4.12388 30.6676 7.88566 30.6676 11.9145C30.6676 12.8209 30.5138 13.6988 30.2356 14.5373C30.0293 15.122 29.7754 15.4578 29.037 15.4689C23.7417 15.5822 20.7436 15.6651 15.4342 15.5256C14.7494 15.5114 14.528 15.2616 14.4167 14.7194C14.3317 14.3977 14.4025 14.1307 14.6241 13.7271C17.4401 8.7384 22.3459 3.03651 23.3089 1.68411C23.4919 1.43429 23.4059 0.930572 22.7778 0.763698C20.9398 0.220496 18.8775 0 16.7866 0C7.31996 0.0384276 0.642969 5.36294 0.489258 11.9711C0.868589 19.9034 7.76599 24 16.7866 24C22.3065 24 27.3629 22.0488 30.3216 18.9546L27.5885 19.0648C25.0648 21.3093 21.0218 22.509 16.8403 22.509C9.21856 22.509 3.01295 18.7189 3.01295 11.9145C3.01295 6.06197 9.2175 1.29471 16.8403 1.29471L17.1903 1.30884ZM79.8045 15.6358L84.9601 12.2504L77.1563 6.43724V7.86039H65.6131C64.1069 7.86039 62.8678 8.9316 62.6432 10.3264L76.0255 10.3123V12.8491L65.7941 12.8633C64.1777 12.8633 62.8537 14.0913 62.7828 15.6358H79.8045ZM128.826 7.8179H140.66V5.32354H128.759C124.309 5.32354 120.672 8.72418 120.49 12.9887L134.835 12.9736C135.767 12.9736 136.52 13.5876 136.52 14.327C136.52 15.0795 135.766 15.6794 134.835 15.6794L119.042 15.6783V5.32354H114.357V15.6105H104.951C103.57 15.386 103.137 14.3836 103.137 12.4314L103.138 5.32354H95.584L88.7927 9.72657L82.8835 5.32354H64.7068C60.678 5.32354 57.3197 8.09609 56.5803 11.789H60.2318C58.8542 12.7237 57.7941 14.0488 57.2084 15.6116L45.651 15.6105C44.2885 15.386 43.8414 14.3836 43.8414 12.4314L43.8424 5.32354H39.1713V11.957C38.975 16.3499 41.3581 17.9239 44.077 18.1737L80.3891 18.1727L87.0803 13.8515L92.9216 18.2303H100.069L90.9695 11.3865L98.4526 6.53636L98.4667 11.957C98.2746 16.3499 100.892 17.9239 103.612 18.1737L137.594 18.1727C139.935 18.1727 141.833 16.4602 141.833 14.327C141.833 12.2068 139.934 10.4943 137.594 10.4943H125.857C125.968 9.00236 127.252 7.8179 128.826 7.8179Z" fill="#282830" fill-opacity="0.5"/>
</svg>
