<svg width="50" height="50" viewBox="0 0 50 50" fill="none" xmlns="http://www.w3.org/2000/svg">
<g clip-path="url(#clip0_123_559)">
<path d="M25 24.9998C22.7084 24.9998 20.8334 23.1248 20.8334 20.8332C20.8334 18.5415 22.7084 16.6665 25 16.6665C27.2917 16.6665 29.1667 18.5415 29.1667 20.8332C29.1667 23.1248 27.2917 24.9998 25 24.9998ZM37.5 21.2498C37.5 13.6873 31.9792 8.33317 25 8.33317C18.0209 8.33317 12.5 13.6873 12.5 21.2498C12.5 26.1248 16.5625 32.5832 25 40.2915C33.4375 32.5832 37.5 26.1248 37.5 21.2498ZM25 4.1665C33.75 4.1665 41.6667 10.8748 41.6667 21.2498C41.6667 28.1665 36.1042 36.354 25 45.8332C13.8959 36.354 8.33337 28.1665 8.33337 21.2498C8.33337 10.8748 16.25 4.1665 25 4.1665Z" fill="#2DBF61"/>
</g>
<defs>
<clipPath id="clip0_123_559">
<rect width="50" height="50" fill="white"/>
</clipPath>
</defs>
</svg>
