<svg width="33" height="32" viewBox="0 0 33 32" fill="none" xmlns="http://www.w3.org/2000/svg">
<g clip-path="url(#clip0_208_46)">
<path fill-rule="evenodd" clip-rule="evenodd" d="M23.8874 2.52362C28.727 5.06882 32.033 10.1432 32.033 15.9924C32.033 21.8416 28.727 26.932 23.8874 29.4616V27.7224C25.7382 26.6152 27.3038 25.066 28.443 23.2324L23.8874 21.3832V18.5692L28.8854 22.474C29.9294 20.5452 30.5146 18.3476 30.5146 15.992C30.5146 11.028 27.857 6.66522 23.8874 4.26201V2.52362ZM16.8491 0.800415C19.3799 0.800415 21.7678 1.41722 23.8874 2.52362V4.26282C21.9418 3.09242 19.6643 2.39722 17.2603 2.31802L18.9999 14.7596L23.8874 18.5696V21.3836L16.8171 18.522L9.79426 21.3992V18.6008L14.7135 14.7592L16.4375 2.31762C14.0015 2.39682 11.7399 3.09241 9.79426 4.26201V2.52362C11.8983 1.41722 14.3023 0.800415 16.8491 0.800415ZM23.8874 29.4616C21.7678 30.568 19.3795 31.2 16.8491 31.2C14.3027 31.2 11.8987 30.568 9.79466 29.4772V27.7224C11.8511 28.9708 14.2707 29.6824 16.8491 29.6824C19.4115 29.6824 21.8158 28.9708 23.8874 27.7224V29.4616ZM9.79466 29.4772C4.93866 26.932 1.63306 21.8416 1.63306 15.9924C1.63306 10.1432 4.93866 5.06882 9.79466 2.52362V4.26282C5.80866 6.66562 3.15146 11.0128 3.15146 15.9924C3.15146 18.3476 3.75266 20.5772 4.79666 22.5056L9.79466 18.6008V21.3992L5.25506 23.264C6.39386 25.0828 7.94386 26.6156 9.79466 27.7224V29.4772Z" fill="#282830" fill-opacity="0.5"/>
</g>
<defs>
<clipPath id="clip0_208_46">
<rect width="32" height="32" fill="white" transform="translate(0.833008)"/>
</clipPath>
</defs>
</svg>
