<svg width="38" height="24" viewBox="0 0 38 24" fill="none" xmlns="http://www.w3.org/2000/svg">
<g clip-path="url(#clip0_208_42)">
<path d="M19.0277 0.165894C8.92672 0.165894 0.736816 5.46397 0.736816 11.9976C0.736816 18.5337 8.92672 23.8342 19.0277 23.8342C29.1286 23.8342 37.3185 18.5361 37.3185 11.9976C37.3185 5.45916 29.1286 0.165894 19.0277 0.165894ZM19.0277 18.7548C17.5253 18.7548 16.2993 15.7957 16.2224 12.0721C17.1262 12.1515 18.0661 12.1947 19.0277 12.1947C19.9892 12.1947 20.9291 12.1515 21.833 12.0721C21.756 15.7933 20.5301 18.7548 19.0277 18.7548ZM16.4075 9.11541C16.8161 6.4832 17.8354 4.61541 19.0277 4.61541C20.22 4.61541 21.2392 6.4832 21.6479 9.11541C20.8089 9.18993 19.9339 9.2308 19.0277 9.2308C18.1214 9.2308 17.2464 9.18993 16.4075 9.11541ZM19.0277 1.87743C17.0661 1.87743 15.3931 4.81493 14.7753 8.91589C11.0565 8.33657 8.46037 7.01445 8.46037 5.47839C8.46037 3.40628 13.1911 1.72599 19.0277 1.72599C24.8642 1.72599 29.595 3.40628 29.595 5.47839C29.595 7.01445 26.9988 8.33657 23.2801 8.91589C22.6623 4.81493 20.9892 1.87743 19.0277 1.87743ZM3.35941 11.5553C3.35941 9.55051 4.13105 7.6683 5.4748 6.05291C5.46037 6.16589 5.45076 6.28128 5.45076 6.39666C5.45076 8.92311 9.23922 11.077 14.5253 11.8702C14.5205 12.0529 14.5205 12.238 14.5205 12.4231C14.5205 17.1322 15.8402 21.1202 17.6647 22.4736C9.64787 21.9904 3.35941 17.2861 3.35941 11.5553ZM20.3907 22.4736C22.2152 21.1202 23.5349 17.1322 23.5349 12.4231C23.5349 12.2356 23.5325 12.0529 23.5301 11.8702C28.8137 11.077 32.6046 8.92551 32.6046 6.39666C32.6046 6.28128 32.595 6.16589 32.5806 6.05291C33.9243 7.6731 34.6959 9.55051 34.6959 11.5553C34.6959 17.2861 28.4075 21.9904 20.3907 22.4736Z" fill="#282830" fill-opacity="0.5"/>
</g>
<defs>
<clipPath id="clip0_208_42">
<rect width="36.9231" height="24" fill="white" transform="translate(0.566162)"/>
</clipPath>
</defs>
</svg>
